<?xml version="1.0" standalone="no"?>
<!DOCTYPE svg PUBLIC "-//W3C//DTD SVG 20010904//EN"
 "http://www.w3.org/TR/2001/REC-SVG-20010904/DTD/svg10.dtd">
<svg version="1.0" xmlns="http://www.w3.org/2000/svg"
 width="500.000000pt" height="500.000000pt" viewBox="0 0 500.000000 500.000000"
 preserveAspectRatio="xMidYMid meet">
<metadata>
Created by potrace 1.16, written by Peter Selinger 2001-2019
</metadata>
<g transform="translate(0.000000,500.000000) scale(0.100000,-0.100000)"
fill="#000000" stroke="none">
<path d="M0 2500 l0 -2500 2500 0 2500 0 0 2500 0 2500 -2500 0 -2500 0 0
-2500z m2818 2023 c24 -51 27 -70 26 -158 -1 -175 -63 -290 -252 -470 -346
-328 -368 -357 -366 -510 0 -67 6 -104 23 -146 29 -75 90 -168 153 -235 28
-30 49 -56 47 -58 -2 -3 -36 16 -74 42 -104 68 -223 193 -265 277 -33 67 -35
75 -35 175 0 100 2 108 33 166 48 88 115 159 286 302 324 272 406 393 393 589
-2 46 -3 83 0 83 2 0 16 -26 31 -57z m136 -622 c-49 -32 -122 -93 -162 -134
-90 -93 -126 -166 -127 -252 0 -62 14 -98 110 -275 44 -82 47 -142 10 -217
-25 -50 -108 -138 -153 -162 -27 -14 -28 -8 -3 33 11 17 24 50 31 74 16 61 -7
133 -79 252 -74 122 -85 150 -85 224 1 195 162 363 473 492 85 35 83 29 -15
-35z m487 -946 c122 -43 172 -169 115 -290 -41 -89 -158 -179 -308 -240 -161
-64 -168 -57 -31 34 96 64 161 129 196 196 31 59 31 168 -1 213 -30 42 -90 72
-144 72 -40 1 -42 2 -24 15 26 20 141 20 197 0z m-1277 -13 c2 -4 -27 -14 -66
-21 -121 -22 -208 -58 -208 -86 0 -18 67 -43 167 -60 257 -45 652 -36 935 21
74 15 78 14 117 -6 23 -11 41 -25 41 -30 0 -19 -216 -70 -385 -91 -131 -17
-542 -17 -665 0 -215 29 -369 75 -397 117 -15 23 -14 26 3 45 10 12 31 27 45
35 39 20 173 53 280 68 118 17 127 18 133 8z m-140 -373 c-25 -27 -10 -49 48
-71 142 -53 604 -51 809 3 33 8 43 5 92 -23 31 -17 54 -35 52 -38 -2 -4 -35
-16 -72 -28 -278 -86 -740 -89 -1004 -6 -126 40 -158 82 -98 127 26 19 136 55
173 56 19 1 19 1 0 -20z m100 -334 c-19 -49 94 -75 318 -75 95 1 196 7 243 15
l80 14 62 -37 c35 -20 63 -39 63 -43 0 -12 -108 -49 -185 -65 -38 -8 -133 -17
-210 -21 -163 -7 -325 13 -433 52 -62 22 -112 61 -112 86 0 19 47 53 97 70 62
22 84 23 77 4z m-284 -83 c0 -4 -19 -13 -43 -20 -105 -31 -185 -101 -161 -140
48 -77 354 -140 720 -149 470 -12 860 56 965 168 24 26 32 29 44 19 8 -7 15
-27 15 -45 0 -115 -314 -207 -794 -235 -346 -19 -781 22 -1006 96 -89 29 -133
54 -156 89 -47 72 73 153 301 205 91 21 115 23 115 12z m1670 -264 c0 -27 -40
-77 -86 -109 -67 -46 -163 -83 -306 -118 -211 -52 -333 -65 -628 -65 -273 -1
-395 9 -565 45 -122 25 -136 30 -129 41 3 5 12 7 20 4 7 -3 80 -13 161 -22
178 -21 578 -23 758 -5 333 34 591 107 710 200 54 43 65 47 65 29z m-1882
-955 l-3 -468 -28 -60 c-15 -33 -46 -79 -69 -102 l-41 -42 -38 31 -38 31 21
29 c46 65 48 93 48 585 l0 463 75 0 76 0 -3 -467z m540 221 c49 -20 71 -42 93
-89 17 -36 19 -69 19 -302 l0 -263 -54 0 c-52 0 -55 1 -61 29 l-6 29 -64 -33
c-79 -41 -138 -51 -207 -35 -101 25 -152 111 -130 219 6 29 23 68 37 86 45 60
174 105 303 105 l42 0 0 50 c0 41 -5 56 -29 82 -25 28 -35 32 -92 36 -38 2
-92 -3 -133 -12 -38 -9 -73 -13 -77 -9 -5 5 -10 24 -11 43 -3 34 -2 35 50 53
117 38 244 43 320 11z m1237 -3 c96 -43 104 -74 105 -393 l0 -258 -55 0 c-54
0 -56 1 -61 30 -4 17 -8 30 -10 30 -2 0 -20 -11 -40 -25 -77 -53 -201 -68
-268 -33 -100 51 -125 197 -50 295 44 58 175 103 303 103 l43 0 -4 56 c-9 106
-86 136 -253 99 -42 -9 -78 -15 -80 -13 -2 2 -5 21 -7 43 l-3 40 53 18 c121
40 248 43 327 8z m-822 -208 c37 -120 70 -235 74 -255 3 -21 9 -38 13 -38 11
0 78 237 101 358 11 59 23 117 25 130 4 20 10 22 78 22 l74 0 -18 -82 c-45
-203 -101 -384 -161 -516 l-28 -63 -87 3 -88 3 -92 300 c-51 165 -96 312 -99
328 l-7 27 74 0 74 0 67 -217z"/>
<path d="M2015 801 c-64 -11 -102 -36 -115 -76 -38 -115 78 -178 193 -105 l47
30 0 80 0 80 -42 -1 c-24 -1 -61 -5 -83 -8z"/>
<path d="M3245 801 c-64 -11 -102 -36 -115 -76 -38 -116 77 -179 193 -105 l47
30 0 80 0 80 -42 -1 c-24 -1 -61 -5 -83 -8z"/>
</g>
</svg>
